<svg xmlns="http://www.w3.org/2000/svg" viewBox="0 0 100 100">
  <defs>
    <clipPath id="cc">
      <circle cx="50" cy="50" r="49.5" />
    </clipPath>
  </defs>
  <g clip-path="url(#cc)">
    <rect x="1"  y="1"  width="17" height="17" rx="3" fill="#1d3a52" />
    <rect x="21" y="1"  width="17" height="17" rx="3" fill="#1d3a52" />
    <rect x="41" y="1"  width="17" height="17" rx="3" fill="#1d3a52" />
    <rect x="61" y="1"  width="17" height="17" rx="3" fill="#1d3a52" />
    <rect x="81" y="1"  width="17" height="17" rx="3" fill="#1d3a52" />
    <rect x="1"  y="21" width="17" height="17" rx="3" fill="#1d3a52" />
    <rect x="21" y="21" width="17" height="17" rx="3" fill="#1d3a52" />
    <rect x="41" y="21" width="17" height="17" rx="3" fill="#1d3a52" />
    <rect x="61" y="21" width="17" height="17" rx="3" fill="#1d3a52" />
    <rect x="81" y="21" width="17" height="17" rx="3" fill="#1d3a52" />
    <rect x="1"  y="41" width="17" height="17" rx="3" fill="#1d3a52" />
    <rect x="21" y="41" width="17" height="17" rx="3" fill="#1d3a52" />
    <rect x="41" y="41" width="17" height="17" rx="3" fill="#1d3a52" />
    <rect x="61" y="41" width="17" height="17" rx="3" fill="#1d3a52" />
    <rect x="81" y="41" width="17" height="17" rx="3" fill="#1d3a52" />
    <rect x="1"  y="61" width="17" height="17" rx="3" fill="#1d3a52" />
    <rect x="21" y="61" width="17" height="17" rx="3" fill="#1d3a52" />
    <rect x="41" y="61" width="17" height="17" rx="3" fill="#1d3a52" />
    <rect x="61" y="61" width="17" height="17" rx="3" fill="#c8a04a" />
    <rect x="81" y="61" width="17" height="17" rx="3" fill="#c8a04a" />
    <rect x="1"  y="81" width="17" height="17" rx="3" fill="#1d3a52" />
    <rect x="21" y="81" width="17" height="17" rx="3" fill="#1d3a52" />
    <rect x="41" y="81" width="17" height="17" rx="3" fill="#1d3a52" />
    <rect x="61" y="81" width="17" height="17" rx="3" fill="#c8a04a" />
    <rect x="81" y="81" width="17" height="17" rx="3" fill="#c8a04a" />
  </g>
</svg>
